<?xml version="1.0" encoding="UTF-8"?>
<svg xmlns="http://www.w3.org/2000/svg" viewBox="0 0 1600 1000" role="img">
  <defs>
    <linearGradient id="sky" x1="0" x2="1" y1="0" y2="1">
      <stop offset="0" stop-color="#ffe8d5"/>
      <stop offset="1" stop-color="#d7e4e6"/>
    </linearGradient>
    <linearGradient id="warmGlow" x1="0" x2="1" y1="0" y2="1">
      <stop offset="0" stop-color="#fff5ad"/>
      <stop offset="0.58" stop-color="#f7b66f"/>
      <stop offset="1" stop-color="#df7b86"/>
    </linearGradient>
    <linearGradient id="leaf" x1="0" x2="1" y1="0" y2="1">
      <stop offset="0" stop-color="#99c77c"/>
      <stop offset="1" stop-color="#5f9f91"/>
    </linearGradient>
    <filter id="paper" x="-8%" y="-8%" width="116%" height="116%">
      <feTurbulence type="fractalNoise" baseFrequency="0.72" numOctaves="4" seed="16" result="noise"/>
      <feColorMatrix in="noise" type="matrix" values="0 0 0 0 0.74 0 0 0 0 0.64 0 0 0 0 0.58 0 0 0 0.18 0" result="grain"/>
      <feBlend in="SourceGraphic" in2="grain" mode="multiply"/>
    </filter>
    <filter id="soft" x="-30%" y="-30%" width="160%" height="160%">
      <feGaussianBlur stdDeviation="18"/>
    </filter>
  </defs>
  <rect width="1600" height="1000" fill="url(#sky)"/>
  
  <g opacity="0.34" fill="#fffaf4">
    <ellipse cx="238" cy="165" rx="92" ry="34"/>
    <ellipse cx="315" cy="154" rx="78" ry="30"/>
    <ellipse cx="1222" cy="128" rx="104" ry="34"/>
    <ellipse cx="1310" cy="142" rx="76" ry="26"/>
  </g>
  <path d="M0 730 C260 650 420 760 640 700 C910 620 1070 735 1600 655 L1600 1000 L0 1000 Z" fill="#eddfcf"/>
  <path d="M0 780 C260 745 440 824 720 760 C960 705 1160 760 1600 724 L1600 1000 L0 1000 Z" fill="#f5ddb8" opacity="0.62"/>
  <g filter="url(#paper)">
    
    <rect x="348" y="300" width="900" height="474" rx="32" fill="#c58d66"/>
    <path d="M296 334 L800 132 L1304 334 Z" fill="#8e5f57"/>
    <rect x="722" y="440" width="194" height="334" rx="18" fill="#704c44"/>
    <rect x="450" y="420" width="190" height="150" rx="18" fill="#9cc0c3"/>
    <rect x="976" y="420" width="190" height="150" rx="18" fill="#a8c5d2"/>
    <rect x="468" y="438" width="154" height="114" rx="12" fill="#dce9ed" opacity="0.72"/>
    <rect x="994" y="438" width="154" height="114" rx="12" fill="#1f2f45" opacity="0.52"/>
    
  <g transform="translate(642 666) scale(0.98 0.98)">
    <path d="M-42 96 Q0 38 42 96 L34 142 Q0 162 -34 142 Z" fill="#f6a5aa"/>
    <circle cx="0" cy="0" r="48" fill="#ffd2b7"/>
    <path d="M-44 -4 C-38 -58 38 -64 46 -2 C26 -20 -24 -18 -44 -4 Z" fill="#4b302f"/>
    <circle cx="-16" cy="8" r="5.8" fill="#3a2a2b"/>
    <circle cx="18" cy="8" r="5.8" fill="#3a2a2b"/>
    <ellipse cx="-31" cy="22" rx="13" ry="8" fill="#f49a9d" opacity="0.72"/>
    <ellipse cx="33" cy="22" rx="13" ry="8" fill="#f49a9d" opacity="0.72"/>
    <path d="M-10 30 Q0 22 10 30" fill="none" stroke="#7d4d49" stroke-width="4" stroke-linecap="round"/>
    <path d="M-38 94 Q-78 112 -94 146" fill="none" stroke="#ffd2b7" stroke-width="15" stroke-linecap="round"/>
    <path d="M38 94 Q78 112 94 146" fill="none" stroke="#ffd2b7" stroke-width="15" stroke-linecap="round"/>
    <path d="M-30 130 Q-70 152 -112 142" fill="none" stroke="#5b6f8f" stroke-width="18" stroke-linecap="round"/>
       <path d="M28 130 Q62 156 104 142" fill="none" stroke="#5b6f8f" stroke-width="18" stroke-linecap="round"/>
  </g>
    
  <g transform="translate(1080 492) scale(0.72 0.72)">
    <path d="M-42 96 Q0 38 42 96 L34 142 Q0 162 -34 142 Z" fill="#8eb6d8"/>
    <circle cx="0" cy="0" r="48" fill="#ffd2b7"/>
    <path d="M-44 -4 C-38 -58 38 -64 46 -2 C26 -20 -24 -18 -44 -4 Z" fill="#3b3435"/>
    <circle cx="-16" cy="8" r="5.8" fill="#3a2a2b"/>
    <circle cx="18" cy="8" r="5.8" fill="#3a2a2b"/>
    
    <path d="M-10 30 Q0 22 10 30" fill="none" stroke="#7d4d49" stroke-width="4" stroke-linecap="round"/>
    <path d="M-38 94 Q-78 112 -94 146" fill="none" stroke="#ffd2b7" stroke-width="15" stroke-linecap="round"/>
    <path d="M38 94 Q78 112 94 146" fill="none" stroke="#ffd2b7" stroke-width="15" stroke-linecap="round"/>
    <path d="M-30 130 Q-70 152 -112 142" fill="none" stroke="#5b6f8f" stroke-width="18" stroke-linecap="round"/>
       <path d="M28 130 Q62 156 104 142" fill="none" stroke="#5b6f8f" stroke-width="18" stroke-linecap="round"/>
  </g>
    <path d="M648 812 C744 842 858 846 966 814" fill="none" stroke="#f3c798" stroke-width="18" stroke-linecap="round"/>
  
  </g>
</svg>