<?xml version="1.0" encoding="UTF-8"?>
<svg xmlns="http://www.w3.org/2000/svg" viewBox="0 0 1600 1000" role="img">
  <defs>
    <linearGradient id="sky" x1="0" x2="1" y1="0" y2="1">
      <stop offset="0" stop-color="#f7eeee"/>
      <stop offset="1" stop-color="#d6d3d6"/>
    </linearGradient>
    <linearGradient id="warmGlow" x1="0" x2="1" y1="0" y2="1">
      <stop offset="0" stop-color="#fff5ad"/>
      <stop offset="0.58" stop-color="#f7b66f"/>
      <stop offset="1" stop-color="#df7b86"/>
    </linearGradient>
    <linearGradient id="leaf" x1="0" x2="1" y1="0" y2="1">
      <stop offset="0" stop-color="#99c77c"/>
      <stop offset="1" stop-color="#5f9f91"/>
    </linearGradient>
    <filter id="paper" x="-8%" y="-8%" width="116%" height="116%">
      <feTurbulence type="fractalNoise" baseFrequency="0.72" numOctaves="4" seed="15" result="noise"/>
      <feColorMatrix in="noise" type="matrix" values="0 0 0 0 0.74 0 0 0 0 0.64 0 0 0 0 0.58 0 0 0 0.18 0" result="grain"/>
      <feBlend in="SourceGraphic" in2="grain" mode="multiply"/>
    </filter>
    <filter id="soft" x="-30%" y="-30%" width="160%" height="160%">
      <feGaussianBlur stdDeviation="18"/>
    </filter>
  </defs>
  <rect width="1600" height="1000" fill="url(#sky)"/>
  
  <g opacity="0.34" fill="#fffaf4">
    <ellipse cx="238" cy="165" rx="92" ry="34"/>
    <ellipse cx="315" cy="154" rx="78" ry="30"/>
    <ellipse cx="1222" cy="128" rx="104" ry="34"/>
    <ellipse cx="1310" cy="142" rx="76" ry="26"/>
  </g>
  <path d="M0 730 C260 650 420 760 640 700 C910 620 1070 735 1600 655 L1600 1000 L0 1000 Z" fill="#e8dfdc"/>
  <path d="M0 780 C260 745 440 824 720 760 C960 705 1160 760 1600 724 L1600 1000 L0 1000 Z" fill="#f5ddb8" opacity="0.62"/>
  <g filter="url(#paper)">
    
    <rect x="558" y="350" width="486" height="390" rx="34" fill="#b9b3b6"/>
    <rect x="612" y="400" width="378" height="278" rx="22" fill="#d8d2d3" opacity="0.8"/>
    
  <g transform="translate(800 558) scale(1.12 1.12)">
    <path d="M-42 96 Q0 38 42 96 L34 142 Q0 162 -34 142 Z" fill="#8eb6d8"/>
    <circle cx="0" cy="0" r="48" fill="#ffd2b7"/>
    <path d="M-44 -4 C-38 -58 38 -64 46 -2 C26 -20 -24 -18 -44 -4 Z" fill="#3b3435"/>
    <circle cx="-16" cy="8" r="5.8" fill="#3a2a2b"/>
    <circle cx="18" cy="8" r="5.8" fill="#3a2a2b"/>
    
    <path d="M-10 30 Q0 22 10 30" fill="none" stroke="#7d4d49" stroke-width="4" stroke-linecap="round"/>
    <path d="M-38 94 Q-78 112 -94 146" fill="none" stroke="#ffd2b7" stroke-width="15" stroke-linecap="round"/>
    <path d="M38 94 Q78 112 94 146" fill="none" stroke="#ffd2b7" stroke-width="15" stroke-linecap="round"/>
    <path d="M-30 130 Q-70 152 -112 142" fill="none" stroke="#5b6f8f" stroke-width="18" stroke-linecap="round"/>
       <path d="M28 130 Q62 156 104 142" fill="none" stroke="#5b6f8f" stroke-width="18" stroke-linecap="round"/>
  </g>
    <g fill="none" stroke="#817b82" stroke-width="13" stroke-linecap="round" opacity="0.9">
      <path d="M320 274 C470 170 580 248 538 326 C500 400 646 412 636 514"/>
      <path d="M1120 258 C994 238 956 342 1048 386 C1130 426 1042 522 1136 584"/>
      <path d="M430 782 C510 684 646 724 626 626"/>
      <path d="M1210 760 C1118 648 1224 566 1102 500"/>
    </g>
    <g fill="#858089" opacity="0.64">
      <ellipse cx="356" cy="394" rx="82" ry="38"/>
      <ellipse cx="428" cy="386" rx="62" ry="32"/>
      <ellipse cx="1196" cy="410" rx="78" ry="36"/>
      <ellipse cx="1264" cy="418" rx="54" ry="28"/>
    </g>
  
  </g>
</svg>